<svg xmlns="http://www.w3.org/2000/svg" viewBox="0 0 760 560" role="img"><defs><style>.ink{fill:none;stroke:#29363c;stroke-width:6;stroke-linecap:round;stroke-linejoin:round}.fine{fill:none;stroke:#29363c;stroke-width:3;stroke-linecap:round;stroke-linejoin:round}.rust{fill:none;stroke:#b85f49;stroke-width:7;stroke-linecap:round;stroke-linejoin:round}.paper{fill:#f6efe3}.wash{fill:#eadfce}.solid{fill:#29363c}.accent{fill:#b85f49}</style></defs><path class="wash" d="M104 414c-46-75-12-171 70-206 56-24 108-8 157-45 76-58 199-21 230 70 34 99-61 196-172 185-111-11-226 90-285-4z"/><path class="fine" d="M81 457h598M129 183l111-72 86 72M151 169v167h145V169"/><path class="ink" d="M411 215c0-40 25-71 65-71s65 31 65 71v198H411zM435 215v-34M517 215v-34M439 258c23 16 52 16 76 0M466 300h21M477 300v94"/><rect class="paper" x="546" y="290" width="109" height="128" rx="8"/><path class="ink" d="M546 290h109v128H546zM576 290v-29h49v29M581 318v76M620 318v76"/><path class="rust" d="M333 408c28-6 54-6 78 0M353 387l-20 21 20 21"/><path class="fine" d="M98 101c20 20 43 28 69 22-11 24-8 49 10 74-28-5-51 5-69 29-1-29-13-50-37-64 26-11 35-31 27-61z"/></svg>